<svg version="1.1" id="Layer_1" xmlns="http://www.w3.org/2000/svg" xmlns:xlink="http://www.w3.org/1999/xlink" x="0px" y="0px"
	 width="100%" viewBox="0 0 1080 1080" enable-background="new 0 0 1080 1080" xml:space="preserve">
<path fill="#FFFFFF" opacity="1.000000" stroke="none" 
	d="
M632.000000,1081.000000 
	C421.357574,1081.000000 211.215164,1081.000000 1.036378,1081.000000 
	C1.036378,721.065796 1.036378,361.131592 1.036378,1.098691 
	C360.892639,1.098691 720.785278,1.098691 1080.838989,1.098691 
	C1080.838989,360.999939 1080.838989,720.999939 1080.838989,1081.000000 
	C931.464417,1081.000000 781.982239,1081.000000 632.000000,1081.000000 
M449.496582,633.000000 
	C454.591248,633.000000 459.685913,633.000000 465.323059,633.000000 
	C465.323059,598.343445 465.323059,564.323303 465.323059,530.439575 
	C445.035614,539.575195 423.618713,534.827026 409.182465,519.429077 
	C395.668213,505.014557 391.749390,483.070190 402.297394,463.400391 
	C408.198090,452.396912 417.066101,444.963440 429.175751,440.764557 
	C441.376892,436.534088 452.982086,437.842102 464.685944,441.961151 
	C464.685944,407.396881 464.685944,373.318359 464.685944,339.752869 
	C366.702240,339.752869 269.033508,339.752869 171.269180,339.752869 
	C171.269180,438.226685 171.269180,535.947388 171.269180,634.000000 
	C188.334793,634.000000 205.133377,634.000000 221.931961,634.000000 
	C238.760590,634.000000 255.589233,634.000000 272.462830,634.000000 
	C263.197571,659.027588 272.651642,679.091614 286.572021,690.952026 
	C301.249817,703.457581 324.054413,707.148865 342.698273,695.486084 
	C365.658905,681.122925 371.757843,659.913696 363.590424,633.000000 
	C392.354462,633.000000 420.426270,633.000000 449.496582,633.000000 
M755.296875,632.001099 
	C722.378418,632.001099 689.459900,632.001099 656.852600,632.001099 
	C664.357666,611.526733 660.903870,592.155579 644.031494,576.894104 
	C629.486206,563.737488 611.517395,559.271423 593.191406,567.645569 
	C565.020447,580.518311 556.754517,603.303345 565.105042,632.994873 
	C537.591553,632.994873 510.478271,632.994873 482.684235,632.994873 
	C482.684235,659.841797 482.684235,686.317871 482.684235,712.804321 
	C523.020142,714.686096 548.226929,740.938416 550.820190,776.496826 
	C552.081177,793.786987 546.670593,809.744446 535.311279,823.056030 
	C521.493835,839.248047 503.210236,846.396057 482.734375,846.989441 
	C482.734375,873.909180 482.734375,900.256592 482.734375,926.743652 
	C575.193359,926.743652 666.917847,926.743652 758.000000,926.743652 
	C758.000000,914.761169 758.000000,903.040588 758.000000,891.319946 
	C758.000000,830.658508 758.000000,769.997070 758.000000,709.335632 
	C758.000000,685.171082 758.033325,661.006348 757.925232,636.842224 
	C757.918030,635.229309 756.838562,633.621155 755.296875,632.001099 
M222.500000,651.000000 
	C205.409225,651.000000 188.318436,651.000000 171.328888,651.000000 
	C171.328888,743.353027 171.328888,835.070679 171.328888,926.661011 
	C269.374939,926.661011 367.091766,926.661011 465.222412,926.661011 
	C465.222412,892.933228 465.222412,859.542847 465.222412,825.783264 
	C488.689270,833.527832 508.703186,828.595703 523.593872,809.453491 
	C536.111389,793.362000 537.991272,774.588379 527.706299,756.948914 
	C513.688049,732.906433 492.147095,725.339417 464.957703,734.228638 
	C464.957703,705.947083 464.957703,678.183228 464.957703,650.839722 
	C437.762970,650.839722 410.969971,650.839722 384.147430,650.839722 
	C385.766052,687.593689 358.289795,718.447449 318.550995,719.633179 
	C301.682068,720.136536 286.295898,714.234619 273.563599,702.823547 
	C258.284912,689.130371 251.833435,671.292603 251.112518,651.000000 
	C241.457901,651.000000 232.478943,651.000000 222.500000,651.000000 
z"/>
<path fill="#5E0086" opacity="1.000000" stroke="none" 
	d="
M448.997345,633.000000 
	C420.426270,633.000000 392.354462,633.000000 363.590424,633.000000 
	C371.757843,659.913696 365.658905,681.122925 342.698273,695.486084 
	C324.054413,707.148865 301.249817,703.457581 286.572021,690.952026 
	C272.651642,679.091614 263.197571,659.027588 272.462830,634.000000 
	C255.589233,634.000000 238.760590,634.000000 221.931961,634.000000 
	C205.133377,634.000000 188.334793,634.000000 171.269180,634.000000 
	C171.269180,535.947388 171.269180,438.226685 171.269180,339.752869 
	C269.033508,339.752869 366.702240,339.752869 464.685944,339.752869 
	C464.685944,373.318359 464.685944,407.396881 464.685944,441.961151 
	C452.982086,437.842102 441.376892,436.534088 429.175751,440.764557 
	C417.066101,444.963440 408.198090,452.396912 402.297394,463.400391 
	C391.749390,483.070190 395.668213,505.014557 409.182465,519.429077 
	C423.618713,534.827026 445.035614,539.575195 465.323059,530.439575 
	C465.323059,564.323303 465.323059,598.343445 465.323059,633.000000 
	C459.685913,633.000000 454.591248,633.000000 448.997345,633.000000 
z"/>
<path fill="#5E0086" opacity="1.000000" stroke="none" 
	d="
M755.777344,632.005981 
	C756.838562,633.621155 757.918030,635.229309 757.925232,636.842224 
	C758.033325,661.006348 758.000000,685.171082 758.000000,709.335632 
	C758.000000,769.997070 758.000000,830.658508 758.000000,891.319946 
	C758.000000,903.040588 758.000000,914.761169 758.000000,926.743652 
	C666.917847,926.743652 575.193359,926.743652 482.734375,926.743652 
	C482.734375,900.256592 482.734375,873.909180 482.734375,846.989441 
	C503.210236,846.396057 521.493835,839.248047 535.311279,823.056030 
	C546.670593,809.744446 552.081177,793.786987 550.820190,776.496826 
	C548.226929,740.938416 523.020142,714.686096 482.684235,712.804321 
	C482.684235,686.317871 482.684235,659.841797 482.684235,632.994873 
	C510.478271,632.994873 537.591553,632.994873 565.105042,632.994873 
	C556.754517,603.303345 565.020447,580.518311 593.191406,567.645569 
	C611.517395,559.271423 629.486206,563.737488 644.031494,576.894104 
	C660.903870,592.155579 664.357666,611.526733 656.852600,632.001099 
	C689.459900,632.001099 722.378418,632.001099 755.777344,632.005981 
z"/>
<path fill="#5E0086" opacity="1.000000" stroke="none" 
	d="
M223.000000,651.000000 
	C232.478943,651.000000 241.457901,651.000000 251.112518,651.000000 
	C251.833435,671.292603 258.284912,689.130371 273.563599,702.823547 
	C286.295898,714.234619 301.682068,720.136536 318.550995,719.633179 
	C358.289795,718.447449 385.766052,687.593689 384.147430,650.839722 
	C410.969971,650.839722 437.762970,650.839722 464.957703,650.839722 
	C464.957703,678.183228 464.957703,705.947083 464.957703,734.228638 
	C492.147095,725.339417 513.688049,732.906433 527.706299,756.948914 
	C537.991272,774.588379 536.111389,793.362000 523.593872,809.453491 
	C508.703186,828.595703 488.689270,833.527832 465.222412,825.783264 
	C465.222412,859.542847 465.222412,892.933228 465.222412,926.661011 
	C367.091766,926.661011 269.374939,926.661011 171.328888,926.661011 
	C171.328888,835.070679 171.328888,743.353027 171.328888,651.000000 
	C188.318436,651.000000 205.409225,651.000000 223.000000,651.000000 
z"/>
</svg>